<?xml version="1.0" encoding="UTF-8"?>
<svg width="12px" height="9px" viewBox="0 0 12 9" version="1.1" xmlns="http://www.w3.org/2000/svg" xmlns:xlink="http://www.w3.org/1999/xlink">
    <!-- Generator: Sketch 45.2 (43514) - http://www.bohemiancoding.com/sketch -->
    <title>Previous</title>
    <desc>Created with Sketch.</desc>
    <defs></defs>
    <g id="Page-1" stroke="none" stroke-width="1" fill="none" fill-rule="evenodd">
        <g id="Sign-Up-1.2-" transform="translate(-796.000000, -422.000000)" stroke="#FFFFFF" fill="#FFFFFF">
            <g id="SAVE" transform="translate(559.000000, 403.000000)">
                <path d="M238.842898,23.8248986 L242.116656,26.8561496 C242.253122,26.9947295 242.253122,27.2193746 242.116656,27.3572251 C241.98019,27.4972636 241.759415,27.4972636 241.622949,27.3572251 L237.710443,23.7359158 C237.70044,23.7278927 237.686151,23.7315396 237.676863,23.7213284 C237.606129,23.649121 237.575406,23.5550326 237.57755,23.4616736 C237.575406,23.3675852 237.606129,23.2742262 237.676863,23.2020188 C237.686151,23.1918077 237.701155,23.1954545 237.711158,23.1867021 L241.622949,19.5653928 C241.759415,19.426813 241.98019,19.426813 242.116656,19.5653928 C242.253122,19.704702 242.253122,19.9293472 242.116656,20.067927 L238.842898,23.0977193 L247.220204,23.0977193 C247.416686,23.0977193 247.577445,23.2610976 247.577445,23.4616736 C247.577445,23.6622497 247.416686,23.8248986 247.220204,23.8248986 L238.842898,23.8248986 Z" id="Previous" transform="translate(242.577445, 23.461856) scale(-1, 1) translate(-242.577445, -23.461856) "></path>
            </g>
        </g>
    </g>
</svg>