<?xml version="1.0" encoding="UTF-8"?>
<svg width="17px" height="20px" viewBox="0 0 17 20" version="1.1" xmlns="http://www.w3.org/2000/svg" xmlns:xlink="http://www.w3.org/1999/xlink">
    <!-- Generator: Sketch 45.2 (43514) - http://www.bohemiancoding.com/sketch -->
    <title>lock-screen-rotation</title>
    <desc>Created with Sketch.</desc>
    <defs></defs>
    <g id="Page-1" stroke="none" stroke-width="1" fill="none" fill-rule="evenodd">
        <g id="Sign-Up-1.2-" transform="translate(-449.000000, -488.000000)" fill-rule="nonzero" fill="#9B9B9B">
            <g id="lock-screen-rotation" transform="translate(449.000000, 488.000000)">
                <g id="XMLID_118_" transform="translate(0.000000, 7.083333)">
                    <path d="M15.3,12.75 L1.13333333,12.75 C0.708333333,12.75 0.425,12.4666667 0.425,12.0416667 L0.425,0.708333333 C0.425,0.283333333 0.708333333,0 1.13333333,0 L15.3,0 C15.725,0 16.0083333,0.283333333 16.0083333,0.708333333 L16.0083333,12.0416667 C16.0083333,12.4666667 15.5833333,12.75 15.3,12.75 Z M1.84166667,11.3333333 L14.5916667,11.3333333 L14.5916667,1.41666667 L1.84166667,1.41666667 L1.84166667,11.3333333 Z" id="XMLID_436_"></path>
                </g>
                <g id="XMLID_119_" transform="translate(7.083333, 11.333333)">
                    <path d="M1.13333333,4.25 C0.708333333,4.25 0.425,3.96666667 0.425,3.54166667 L0.425,1.41666667 C0.425,0.991666667 0.708333333,0.708333333 1.13333333,0.708333333 C1.55833333,0.708333333 1.84166667,0.991666667 1.84166667,1.41666667 L1.84166667,3.54166667 C1.84166667,3.96666667 1.41666667,4.25 1.13333333,4.25 Z" id="XMLID_435_"></path>
                </g>
                <g id="XMLID_16_" transform="translate(5.666667, 11.333333)">
                    <circle id="XMLID_432_" cx="2.55" cy="1.41666667" r="1.41666667"></circle>
                </g>
                <g id="XMLID_17_" transform="translate(1.416667, 0.000000)">
                    <path d="M12.4666667,8.5 L1.13333333,8.5 C0.708333333,8.5 0.425,8.21666667 0.425,7.79166667 L0.425,6.375 C0.425,2.83333333 3.25833333,0 6.8,0 C10.3416667,0 13.175,2.83333333 13.175,6.375 L13.175,7.79166667 C13.175,8.21666667 12.75,8.5 12.4666667,8.5 Z M1.84166667,7.08333333 L11.7583333,7.08333333 L11.7583333,6.375 C11.7583333,3.68333333 9.49166667,1.41666667 6.8,1.41666667 C4.10833333,1.41666667 1.84166667,3.68333333 1.84166667,6.375 L1.84166667,7.08333333 Z" id="XMLID_429_"></path>
                </g>
            </g>
        </g>
    </g>
</svg>