<svg width="126px" height="20px" viewBox="0 0 126 20" version="1.1" xmlns="http://www.w3.org/2000/svg" xmlns:xlink="http://www.w3.org/1999/xlink">
    <!-- Generator: Sketch 41 (35326) - http://www.bohemiancoding.com/sketch -->
    <title>snappic</title>
    <desc>Created with Sketch.</desc>
    <defs></defs>
    <g id="Page-1" stroke="none" stroke-width="1" fill="none" fill-rule="evenodd">
        <g id="snappic" fill="#000000">
            <path d="M48.7423771,0.730765158 L48.451614,0.730765158 L48.1530526,0.730765158 L48.0338508,0.98699323 L47.5893508,1.94729147 C47.5871227,1.95174761 47.5837806,1.95508972 47.5815526,1.95954586 L39.9849473,18.3514581 L39.5705262,19.2438002 L40.3325263,19.2438002 L40.3347543,19.2438002 L40.4728947,19.2438002 L42.6073859,19.2438002 L43.1387806,19.2438002 L43.5442894,18.3514581 L43.5353771,18.3514581 L44.6482982,15.9061511 L52.4677105,15.9061511 L53.7488508,18.7224318 C53.7533069,18.7302301 53.7566491,18.7369143 53.7622192,18.7447125 L53.9883684,19.2438002 L54.5075087,19.2438002 L54.7024648,19.2438002 L56.7834824,19.2438002 L56.8057631,19.2438002 L57.5410262,19.2438002 L57.2380087,18.5820634 L49.6258069,1.99853709 L49.6258069,1.99630902 L49.1612543,0.98699323 L49.0431666,0.730765158 L48.7423771,0.730765158 Z M48.4928333,7.27460726 L48.5708157,7.27460726 L51.1865701,13.011888 L45.9294385,13.011888 L48.4928333,7.27460726 Z" id="path-1"></path>
            <path d="M63.3941667,0.730765158 L63.243772,0.730765158 L62.7469124,0.730765158 L62.7469124,1.22651077 L62.7469124,1.58745814 L62.7469124,18.1108266 L62.7469124,18.4895985 L62.7469124,19.2438002 L66.1469475,19.2438002 L66.1469475,18.4918266 L66.1469475,18.4895985 L66.1469475,12.3612915 L69.4166404,12.3612915 C72.6061229,12.3612915 75.2486141,9.72771253 75.2486141,6.49366867 C75.2486141,3.3387213 72.6061229,0.730765158 69.3899036,0.730765158 L63.3941667,0.730765158 Z M66.1469475,3.93807218 L69.180465,3.93807218 C70.6454211,3.93807218 71.8742018,5.03316867 71.8742018,6.46804586 C71.8742018,8.00652832 70.6454211,9.17960726 69.180465,9.17960726 L66.1469475,9.17960726 L66.1469475,3.93807218 Z" id="path-3"></path>
            <path d="M82.0163768,0.730765158 L81.8659821,0.730765158 L81.3691224,0.730765158 L81.3691224,1.22651077 L81.3691224,1.58745814 L81.3691224,18.1108266 L81.3691224,18.4895985 L81.3691224,19.2438002 L84.7680435,19.2438002 L84.7680435,18.4918266 L84.7680435,18.4895985 L84.7680435,12.3612915 L88.0377364,12.3612915 C91.2283329,12.3612915 93.8708242,9.72771253 93.8708242,6.49366867 C93.8708242,3.3387213 91.2283329,0.730765158 88.0121136,0.730765158 L82.0163768,0.730765158 Z M84.7680435,3.93807218 L87.802675,3.93807218 C89.2676312,3.93807218 90.4964119,5.03316867 90.4964119,6.46804586 C90.4964119,8.00652832 89.2676312,9.17960726 87.802675,9.17960726 L84.7680435,9.17960726 L84.7680435,3.93807218 Z" id="path-5"></path>
            <polygon id="Fill-10" points="99.9904421 0.7304307 99.9904421 1.48574649 99.9904421 1.98706228 99.9904421 17.9879482 99.9904421 18.7488342 99.9904421 19.2434658 100.487302 19.2434658 102.920354 19.2434658 103.4161 19.2434658 103.4161 18.7488342 103.4161 17.9879482 103.4161 1.98706228 103.4161 1.48574649 103.4161 0.7304307"></polygon>
            <path d="M109.982,10.0117915 C109.982,15.1552915 114.134009,19.2438002 119.291992,19.2438002 C121.540114,19.2438002 123.713597,18.4773441 125.450378,16.8497388 L125.450378,16.8530809 L125.506079,16.7984932 C125.523904,16.7817827 125.541728,16.7661862 125.558439,16.7494757 C125.564009,16.7450195 125.567351,16.7383353 125.572921,16.7327652 L125.916044,16.3952125 L125.457062,15.9239757 L124.040009,14.4657038 L123.698,14.1092125 L123.315886,14.4289406 C122.236386,15.2923178 120.930737,15.8749581 119.394483,15.8749581 C116.093597,15.8749581 113.617097,13.1489143 113.617097,9.9349231 C113.617097,6.69530902 116.067974,3.94252832 119.36886,3.94252832 C120.804851,3.94252832 122.239728,4.50288796 123.320342,5.44424761 L123.690202,5.76731779 L124.061176,5.38297568 L125.558439,3.84003709 C125.562895,3.83669498 125.565123,3.83112481 125.569579,3.8277827 L125.921614,3.46237919 L125.541728,3.1292827 C125.538386,3.12705463 125.536158,3.12259849 125.532816,3.11925639 C125.494939,3.08694937 125.457062,3.05575639 125.420299,3.02233533 L125.2855,2.90424761 L125.2855,2.90647568 C123.601079,1.4782827 121.775176,0.728537088 119.291992,0.728537088 C114.134009,0.728537088 109.982,4.86940551 109.982,10.0117915 Z" id="path-7"></path>
            <polygon id="Fill-17" points="18.9116368 0.72742281 18.9116368 1.19754561 18.9116368 1.35016842 18.9116368 18.3692825 18.9116368 18.7491684 18.9116368 19.2438 19.4084965 19.2438 21.7891895 19.2438 22.2860491 19.2438 22.2860491 18.7491684 22.2860491 18.3692825 22.2860491 7.53529123 22.3116719 7.53529123 33.0052947 19.2438 34.1783737 19.2438 34.3131719 19.2438 34.3688737 19.2438 34.3688737 19.0354754 34.3688737 18.9753175 34.3688737 2.04978246 34.3688737 1.48496667 34.3688737 0.73076491 30.9677246 0.73076491 30.9677246 2.04978246 30.9688386 2.04978246 30.9688386 12.2543439 30.9421018 12.2543439 20.0624351 0.72853684 20.0624351 0.72742281"></polygon>
            <path d="M0.613833333,5.6659406 C0.613833333,8.70057218 3.03797368,10.2435108 5.46211404,11.2205195 C7.62779825,12.0950371 8.73737719,12.9940634 8.73737719,14.3063967 C8.73737719,15.4115195 7.73140351,16.2860371 6.3912193,16.2860371 C6.26199123,16.2860371 6.13164912,16.2760108 6.00019298,16.2593002 C4.86276316,16.062116 3.57605263,15.3168266 3.11038596,15.0316336 L3.09367544,15.0216073 C3.02349123,14.9792739 2.97224561,14.9469669 2.94662281,14.9313704 C2.94439474,14.9302564 2.94216667,14.9291424 2.9399386,14.9291424 L2.45867544,14.6350371 L2.05873684,15.235502 C2.05539474,15.2399581 2.0509386,15.2444143 2.04759649,15.2499845 L1.97184211,15.3658441 L1.10623684,16.6904318 L0.733035088,17.2507915 L1.58081579,17.8011248 L1.57970175,17.8000108 C2.17682456,18.1821248 3.31425439,18.7993002 4.76918421,19.0856073 C4.76807018,19.0878353 4.76695614,19.0889494 4.76695614,19.0900634 C4.87724561,19.110116 4.99199123,19.1290546 5.10785088,19.1446511 C5.5245,19.2103792 5.96342982,19.2471424 6.42129825,19.2415722 C6.44580702,19.2415722 6.46920175,19.2438002 6.49259649,19.2438002 C10.1310351,19.2438002 12.4259474,16.8007213 12.4259474,14.1526599 C12.4259474,10.8350634 9.53725439,9.34337042 7.03513158,8.34073884 C4.94631579,7.49184411 3.99270175,6.66857218 3.99270175,5.45984411 C3.99270175,4.63768621 4.79146491,3.6595634 6.26087719,3.6595634 C7.49745614,3.6595634 9.144,4.63657218 9.68430702,4.97301077 L9.70101754,4.98303709 C9.77120175,5.02648446 9.82133333,5.05879147 9.84695614,5.07438796 C9.84918421,5.07661604 9.85141228,5.07661604 9.85364035,5.07884411 L10.3326754,5.37629147 L10.7381842,4.78139674 C10.7415263,4.77582656 10.7459825,4.77137042 10.7493246,4.76580025 L10.8250789,4.65216867 L10.826193,4.65105463 L11.7062807,3.33537919 L12.0850526,2.77836165 L11.2417281,2.22023007 L11.2428421,2.22134411 C10.4396228,1.69440551 8.65382456,0.728537088 6.41684211,0.728537088 C2.31607895,0.728537088 0.613833333,3.37771253 0.613833333,5.6659406 Z" id="path-9"></path>
        </g>
    </g>
</svg>